<svg width="320" height="96" viewBox="0 0 320 96" fill="none" xmlns="http://www.w3.org/2000/svg" role="img" aria-label="HireNest logo">
  <defs>
    <linearGradient id="logoGradient" x1="0" y1="0" x2="1" y2="1">
      <stop offset="0" stop-color="#EF4444"/>
      <stop offset="1" stop-color="#6D5DFC"/>
    </linearGradient>
  </defs>
  <rect x="0" y="0" width="96" height="96" rx="22" fill="url(#logoGradient)"/>
  <path d="M30 26H54C62.8366 26 70 33.1634 70 42V42C70 50.8366 62.8366 58 54 58H30V26Z" fill="#FFFFFF" fill-opacity="0.14"/>
  <path d="M30 58H50C58.8366 58 66 65.1634 66 74V74C66 82.8366 58.8366 90 50 90H30V58Z" fill="#FFFFFF" fill-opacity="0.1"/>
  <path d="M24 22H52C61.9411 22 70 30.0589 70 40V44C70 53.9411 61.9411 62 52 62H24V22Z" fill="#FFFFFF"/>
  <path d="M24 62H46C55.9411 62 64 70.0589 64 80V82C64 91.9411 55.9411 100 46 100H24V62Z" fill="#FFFFFF" fill-opacity="0.92"/>
  <path d="M18 14H38V36H18V14Z" fill="#FFFFFF" fill-opacity="0.92"/>
  <text x="112" y="44" fill="#111827" font-family="Inter, Arial, sans-serif" font-size="32" font-weight="800">Hire</text>
  <text x="176" y="44" fill="#6D5DFC" font-family="Inter, Arial, sans-serif" font-size="32" font-weight="800">Nest</text>
  <text x="112" y="68" fill="#64748B" font-family="Inter, Arial, sans-serif" font-size="12" font-weight="600">Connecting talent with opportunity</text>
</svg>
